<?xml version="1.0" encoding="UTF-8"?>
<svg id="Capa_2" data-name="Capa 2" xmlns="http://www.w3.org/2000/svg" viewBox="0 0 17.01 26.43">
  <defs>
    <style>
      .cls-1 {
        fill: #fffdfa;
      }
    </style>
  </defs>
  <g id="Capa_1-2" data-name="Capa 1">
    <g>
      <path class="cls-1" d="M7.26,0c.3,.16,.38,.43,.42,.74,.31,2.11,.62,4.22,.95,6.32,.29,1.87-.63,3.71-2.34,4.56-.17,.08-.2,.18-.19,.36,.14,1.81,.26,3.62,.39,5.43,.15,2.04,.28,4.08,.45,6.12,.12,1.52-.98,2.83-2.47,2.89-1.53,.06-2.78-1.14-2.72-2.69,.05-1.31,.17-2.61,.27-3.91,.11-1.57,.23-3.14,.34-4.71,.08-1.05,.14-2.11,.22-3.16,.01-.16-.02-.24-.17-.32C.65,10.75-.25,8.94,.06,7.01,.39,4.9,.7,2.79,1.01,.69,1.05,.39,1.14,.14,1.43,0h.31c.26,.13,.39,.33,.41,.63,.15,1.85,.31,3.7,.46,5.55,.02,.22,.11,.36,.34,.37,.22,.02,.35-.11,.37-.36,.03-.28,.05-.57,.07-.85,.13-1.57,.27-3.13,.39-4.7C3.8,.33,3.93,.12,4.21,0h.26c.24,.11,.4,.28,.42,.57,.06,.81,.13,1.61,.2,2.42,.09,1.07,.18,2.14,.26,3.21,.02,.22,.12,.35,.36,.36,.22,0,.34-.12,.36-.38,.15-1.82,.31-3.63,.45-5.45C6.55,.4,6.64,.14,6.95,0h.31Z"/>
      <path class="cls-1" d="M16.6,0c.31,.15,.41,.4,.41,.73,0,7.64,0,15.28,0,22.92,0,1.61-1.2,2.83-2.75,2.78-1.49-.05-2.67-1.36-2.53-2.84,.23-2.44,.48-4.88,.73-7.31,.04-.4,.09-.8,.11-1.21,.02-.3,.12-.55,.35-.75,.19-.16,.36-.34,.49-.47-.37-.68-.76-1.29-1.06-1.95-.5-1.1-.7-2.28-.8-3.47-.08-1-.1-1.99,.13-2.98C12.26,2.92,13.8,1.19,16.12,.1c.06-.03,.12-.06,.18-.1,.1,0,.21,0,.31,0Z"/>
    </g>
  </g>
</svg>