<?xml version="1.0" encoding="UTF-8"?>
<svg id="Capa_2" data-name="Capa 2" xmlns="http://www.w3.org/2000/svg" viewBox="0 0 26.43 26.43">
  <defs>
    <style>
      .cls-1 {
        fill: #fffdfa;
      }
    </style>
  </defs>
  <g id="Capa_1-2" data-name="Capa 1">
    <path class="cls-1" d="M12.86,0h.72c.77,.15,1.31,.65,1.84,1.19,3.27,3.28,6.55,6.56,9.83,9.83,.55,.54,1.04,1.09,1.18,1.88v.62s-.03,.06-.04,.09c-.26,1.26-1.19,2.02-2.46,2.03-.11,0-.21,0-.33,0,0,.15,0,.25,0,.35,0,2.49,0,4.97,0,7.46,0,1.75-1.22,2.97-2.97,2.97-1.31,0-2.62,0-3.92,0-.67,0-.95-.29-.95-.96,0-1.98,0-3.96,0-5.94,0-.86-.54-1.39-1.4-1.4-.74,0-1.48,0-2.22,0-.94,0-1.45,.52-1.45,1.45,0,1.98,0,3.96,0,5.94,0,.6-.3,.91-.9,.91-1.33,0-2.67,0-4,0-.25,0-.5-.02-.74-.08-1.32-.31-2.19-1.43-2.2-2.82,0-2.52,0-5.04,0-7.56,0-.1,0-.2,0-.29-.05-.02-.06-.03-.08-.03-.13,0-.26,0-.39,0-.89-.04-1.58-.44-2.03-1.21-.58-.98-.4-2.16,.46-3.02C4.2,8.01,7.6,4.62,10.99,1.21c.54-.54,1.08-1.05,1.86-1.21Z"/>
  </g>
</svg>