<?xml version="1.0" encoding="UTF-8"?>
<svg id="Capa_2" data-name="Capa 2" xmlns="http://www.w3.org/2000/svg" viewBox="0 0 18.98 27.91">
  <defs>
    <style>
      .cls-1 {
        fill: #fffdfa;
      }
    </style>
  </defs>
  <g id="Capa_1-2" data-name="Capa 1">
    <g>
      <path class="cls-1" d="M3.37,0c1.08,.06,2.15-.14,3.18,.23,1.61,.58,2.58,1.72,2.9,3.4,0,.04,.02,.09,.07,.14,.03-.12,.06-.24,.08-.37C10.05,1.41,11.78,.02,13.83,0c.6,0,1.19,0,1.77,0,.02,.04,.04,.06,.04,.07-.02,1.13,.06,2.28-.08,3.39-.25,1.94-2.03,3.47-4,3.51-1.37,.03-2.74,.04-4.1,0-2.18-.06-4-1.88-4.08-4.05-.03-.96,0-1.92,0-2.93Z"/>
      <path class="cls-1" d="M18.98,8.85H.05q-.11,1.29,.78,2.18s.04,.04,.06,.06c.12,.17,.29,.21,.5,.21,.1,0,.21,0,.32,0,.1,.99,.21,2.03,.31,3,.2,1.91,.41,3.82,.61,5.73,.2,1.91,.41,3.82,.61,5.73,.07,.72,.13,1.43,.2,2.15H15.58c0-.1,0-.19,0-.29,.12-1.17,.25-2.33,.37-3.5,.2-1.91,.41-3.82,.61-5.73,.18-1.73,.37-3.46,.55-5.19,.06-.61,.13-1.27,.2-1.89,.21,0,.42,0,.59-.08,.36-.15,.62-.56,.92-.86,.03-.03,.06-.05,.08-.08,.03-.06,.08-.13,.08-.2,0-.41,0-.83,0-1.26Zm-7.86,15.06c-.22,.07-.44,.12-.68,.18v1.99h-1.96v-2c-1-.17-1.79-.63-2.33-1.47-.34-.53-.5-1.1-.5-1.76h1.95c.04,.43,.18,.8,.54,1.05,.45,.31,2.18,.31,2.63,0,.42-.29,.61-.82,.47-1.3-.15-.51-.57-.85-1.1-.87-.56-.02-1.12,0-1.67-.05-1.53-.15-2.7-1.4-2.81-2.97-.1-1.49,.94-2.9,2.4-3.26,.13-.03,.25-.06,.41-.09v-2.01h1.96v1.99c1.84,.46,2.88,1.65,2.82,3.22h-1.91c-.07-.21-.11-.44-.21-.63-.2-.37-.53-.59-.95-.6-.47-.02-.94-.02-1.41,0-.65,.03-1.12,.53-1.14,1.17-.02,.61,.42,1.16,1.04,1.22,.51,.05,1.03,.02,1.54,.04,1.55,.05,2.79,1.17,3.03,2.75,.22,1.43-.7,2.91-2.12,3.39Z"/>
    </g>
  </g>
</svg>