<?xml version="1.0" encoding="UTF-8"?>
<svg id="Capa_2" data-name="Capa 2" xmlns="http://www.w3.org/2000/svg" viewBox="0 0 25.95 26.16">
  <defs>
    <style>
      .cls-1 {
        fill: #fffdfa;
      }
    </style>
  </defs>
  <g id="Capa_1-2" data-name="Capa 1">
    <g>
      <path class="cls-1" d="M7.44,22.02h0c-.45,0-.81-.36-.81-.81,0-1.85,0-6.37,0-8.8,0-.14,0-.28-.02-.42-.07-.43-.42-.71-.84-.7-.41,.02-.75,.33-.79,.75,0,.06,0,.13,0,.19,0,3.25,0,6.5,0,9.75,0,1.19,.77,2.17,1.87,2.45,1.59,.39,3.07-.77,3.09-2.44,.01-1.64,0-3.27,0-4.91s0-3.13,0-4.69-.74-2.95-2.02-3.76c-2.81-1.79-6.19,.39-6.23,3.32-.03,2.41,0,4.82-.01,7.23,0,.67,0,1.33,0,2.01,0,.46-.37,.83-.83,.83h0c-.45,0-.82-.37-.83-.82C0,19.31,0,14.71,0,12.22c0-3.01,2.04-5.38,5.02-5.84,2.98-.46,5.99,1.73,6.46,4.72,.06,.38,.09,.77,.09,1.16,0,3.23,.01,6.46,0,9.68,0,2.03-1.29,3.68-3.2,4.12-2.6,.59-5.04-1.33-5.06-4.05-.02-3.27-.01-6.54,0-9.81,0-1.33,.88-2.35,2.12-2.53,1.2-.17,2.35,.54,2.71,1.7,.08,.25,.12,.53,.12,.79,0,2.54,0,7.19,0,9.06,0,.45-.37,.81-.81,.81Z"/>
      <path class="cls-1" d="M18.05,.14c2.58,2.58,5.18,5.18,7.76,7.76h-6.7c-.58,0-1.05-.47-1.05-1.05V.14Z"/>
      <path class="cls-1" d="M25.56,9.4c-2.24,0-4.48,0-6.72,0-1.42,0-2.28-.87-2.28-2.29,0-2.24,0-4.48,0-6.72V.04c-.06-.02-.09-.03-.12-.03-2.41,0-4.83-.01-7.24,0-.99,0-1.86,.73-1.97,1.68-.09,.82-.02,1.66-.02,2.51,.08,.02,1.8,.26,2.68,.69,3,1.48,4.03,3.7,4.06,7.02,.03,4.24,0,8.48,0,12.71,0,.13,0,.26,0,.42h.52c3.06,0,6.11,0,9.17,0,1.44,0,2.31-.86,2.31-2.3,0-4.33,0-8.66,0-12.99v-.36h-.39Zm-1.71,10.39c0,.43-.35,.78-.78,.78h-6.15c-.43,0-.78-.35-.78-.78v-.21c0-.43,.35-.78,.78-.78h6.15c.43,0,.78,.35,.78,.78v.21Zm0-4.33c0,.43-.35,.78-.78,.78h-6.15c-.43,0-.78-.35-.78-.78v-.21c0-.43,.35-.78,.78-.78h6.15c.43,0,.78,.35,.78,.78v.21Z"/>
    </g>
  </g>
</svg>