<?xml version="1.0" encoding="UTF-8"?>
<svg id="Capa_2" data-name="Capa 2" xmlns="http://www.w3.org/2000/svg" viewBox="0 0 25.84 25.86">
  <defs>
    <style>
      .cls-1 {
        fill: #fffdfa;
      }
    </style>
  </defs>
  <g id="Capa_1-2" data-name="Capa 1">
    <g>
      <path class="cls-1" d="M6.05,12.1C2.71,12.1,0,9.39,0,6.05S2.71,0,6.05,0s6.05,2.71,6.05,6.05-2.71,6.05-6.05,6.05Zm0-9.1c-1.68,0-3.05,1.37-3.05,3.05s1.37,3.05,3.05,3.05,3.05-1.37,3.05-3.05-1.37-3.05-3.05-3.05Z"/>
      <path class="cls-1" d="M19.79,12.1c-3.34,0-6.05-2.71-6.05-6.05S16.46,0,19.79,0s6.05,2.71,6.05,6.05-2.71,6.05-6.05,6.05Zm0-9.1c-1.68,0-3.05,1.37-3.05,3.05s1.37,3.05,3.05,3.05,3.05-1.37,3.05-3.05-1.37-3.05-3.05-3.05Z"/>
      <path class="cls-1" d="M6.05,25.86c-3.34,0-6.05-2.71-6.05-6.05s2.71-6.05,6.05-6.05,6.05,2.71,6.05,6.05-2.71,6.05-6.05,6.05Zm0-9.1c-1.68,0-3.05,1.37-3.05,3.05s1.37,3.05,3.05,3.05,3.05-1.37,3.05-3.05-1.37-3.05-3.05-3.05Z"/>
    </g>
  </g>
</svg>