<?xml version="1.0" encoding="UTF-8"?>
<svg id="Capa_2" data-name="Capa 2" xmlns="http://www.w3.org/2000/svg" viewBox="0 0 26.4 26.41">
  <defs>
    <style>
      .cls-1 {
        fill: #fffdfa;
      }
    </style>
  </defs>
  <g id="Capa_1-2" data-name="Capa 1">
    <path class="cls-1" d="M4.59,0c5.74,0,11.48,0,17.22,0,.02,.01,.04,.03,.06,.04,1.24,.16,2.36,1.36,2.33,2.84-.04,1.52,0,3.04-.01,4.56,0,.22,.05,.32,.28,.39,.99,.32,1.64,1.01,1.85,2.02,.11,.53,.08,1.09,.07,1.64,0,.99-.71,1.68-1.7,1.69-.16,0-.32,0-.5,0,0,.13,0,.22,0,.31,0,.76,0,1.51,0,2.27,0,1.93,0,3.87-.01,5.8,0,.79-.34,1.46-.96,1.94-.36,.28-.78,.47-1.22,.73,0,.09,0,.25,0,.42-.03,1.05-.71,1.73-1.76,1.74-.68,0-1.36,0-2.04,0-.99-.01-1.68-.71-1.7-1.69,0-.16,0-.32,0-.49h-6.6c0,.2,0,.38,0,.56-.04,.91-.7,1.59-1.61,1.62-.76,.02-1.51,.02-2.27,0-.64-.02-1.12-.33-1.43-.9-.2-.36-.18-.76-.2-1.15,0-.08-.07-.2-.13-.22-1.25-.33-2.1-1.52-2.07-2.94,.05-2.55,.01-5.1,.01-7.66v-.32c-.14,0-.26,.02-.36,0-.31-.05-.64-.07-.92-.19-.53-.21-.77-.68-.92-1.2v-1.7s.04-.1,.05-.14c.22-1.06,.86-1.78,1.88-2.12,.22-.08,.28-.17,.28-.39,0-1.62-.01-3.23,0-4.85,0-.77,.36-1.39,.93-1.91,.41-.38,.91-.56,1.44-.69ZM13.2,6.6c-2.32,0-4.64,0-6.96,0-1.16,0-1.84,.67-1.84,1.84,0,1.71,0,3.42,0,5.13,0,.2,.02,.42,.07,.61,.21,.78,.85,1.23,1.75,1.23,4.66,0,9.31,0,13.97,0,.2,0,.4-.02,.59-.07,.77-.21,1.23-.84,1.23-1.72,0-1.74,0-3.49,0-5.23,0-.19-.02-.38-.07-.56-.21-.77-.84-1.22-1.7-1.22-2.34,0-4.69,0-7.03,0Zm0-4.4c-1.56,0-3.13,0-4.69,0-.5,0-1-.01-1.49,.02-.65,.04-1.12,.39-1.37,.98-.25,.58-.18,1.14,.21,1.65,.38,.49,.9,.65,1.5,.65,3.9,0,7.8,0,11.7,0,.05,0,.1,0,.15,0,1.22-.05,1.98-1.12,1.58-2.23-.24-.67-.84-1.06-1.66-1.07-1.98,0-3.95,0-5.93,0ZM7.15,20.89c.91,0,1.66-.75,1.65-1.65-.01-.9-.75-1.64-1.65-1.64-.9,0-1.65,.75-1.64,1.66,0,.9,.74,1.63,1.64,1.63Zm13.74-1.64c0-.9-.73-1.63-1.63-1.65-.89-.01-1.66,.75-1.66,1.65,0,.9,.75,1.65,1.66,1.64,.9,0,1.63-.74,1.63-1.64Z"/>
  </g>
</svg>